<?xml version="1.0" encoding="utf-8"?>
<!-- Generator: Adobe Illustrator 19.2.0, SVG Export Plug-In . SVG Version: 6.00 Build 0)  -->
<svg version="1.1" id="Layer_1" xmlns="http://www.w3.org/2000/svg" xmlns:xlink="http://www.w3.org/1999/xlink" x="0px" y="0px"
	 viewBox="0 0 200 200" style="enable-background:new 0 0 200 200;" xml:space="preserve">
<path d="M45.1,101.7c8.1,5.8,15.6,11.2,23,16.6c6.9,5,13.7,10,20.6,14.9c7.3,5.3,14.8,5.3,22.2,0c13.6-9.8,27.2-19.6,40.7-29.5
	c0.7-0.6,1.5-1,2.6-1.8c0.1,0.9,0.2,1.4,0.2,2.1c0,13.7,0,27.5,0,41.2c0,8.1-3.7,11.8-12,11.8c-28.5,0-57,0-85.5,0
	c-8.2,0-12-3.8-12-12.1c0-13.3,0-26.5,0-39.8C45.1,104.2,45.1,103.3,45.1,101.7z"/>
<path d="M134.4,107c0-1.3,0-2.2,0-3.1c0-11-0.1-21.9,0.1-32.9c0-2.2-0.5-3.2-3-3.1c-21.2,0.1-42.3,0.1-63.5,0c-2.5,0-3,0.8-3,3.1
	c0.1,10.9,0.1,21.7,0.1,32.6c0,1,0,2,0,3.7c-6.7-5-13-9.6-19.3-14.2c-0.5-0.3-0.6-1.3-0.7-2c-0.2-3.7,1.2-7,4.3-8.8
	c5-2.9,6.4-6.9,6-12.5C54.9,62,59.2,58,67,57.9c4-0.1,8-0.1,12,0.1c2.5,0.1,4.3-0.7,6.2-2.2c2.9-2.2,5.8-4.3,8.9-6.2
	c3.7-2.3,7.6-2.3,11.3,0.1c3.4,2.2,6.5,4.6,9.9,6.8c1.3,0.8,2.9,1.4,4.3,1.5c4.5,0.2,9,0.1,13.4,0.1c6.8,0.1,11.3,4.1,10.8,10.8
	c-0.4,6.1,0.8,10.9,6.6,14c1.4,0.7,2.5,2.6,3.1,4.3c1.7,3.9,1.1,5.4-2.3,8c-4.9,3.5-9.7,7.1-14.6,10.6
	C136.2,105.9,135.5,106.3,134.4,107z"/>
<path d="M100.1,81.6c4,0,7.9,0,11.9,0c1.7,0,3,0.3,3.1,2.4c0,2-1.4,2.3-2.9,2.3c-8.2,0-16.4,0-24.7,0c-1.5,0-3-0.3-3-2.3
	c0-2,1.5-2.4,3.1-2.4C91.7,81.6,95.9,81.6,100.1,81.6z"/>
<path d="M99.7,92.1c4,0,8.1,0,12.1,0c1.6,0,3.3,0.1,3.3,2.4c0,2.2-1.6,2.3-3.2,2.3c-8.1,0-16.1,0-24.2,0c-1.6,0-3.2-0.2-3.2-2.3
	c0-2.2,1.6-2.4,3.3-2.4C91.7,92.1,95.7,92.1,99.7,92.1z"/>
</svg>
