<?xml version="1.0" encoding="utf-8"?>
<!-- Generator: Adobe Illustrator 19.2.0, SVG Export Plug-In . SVG Version: 6.00 Build 0)  -->
<svg version="1.1" id="Layer_1" xmlns="http://www.w3.org/2000/svg" xmlns:xlink="http://www.w3.org/1999/xlink" x="0px" y="0px"
	 viewBox="0 0 200 200" style="enable-background:new 0 0 200 200;" xml:space="preserve">
<path d="M132.1,143.8c-35.9-1.9-65.6-28-72.1-63.4c-0.8-4.3-1-8.8-1.2-13.2c-0.1-2.7,1.4-4.7,4-5.3c5.7-1.4,11.3-2.6,17-3.8
	c2.6-0.5,4.7,0.5,5.7,2.8c2.6,6,5.3,12.1,7.8,18.1c1.1,2.6,0.5,4.6-1.7,6.4c-2.4,2-4.8,3.9-7.2,5.8c-1.1,0.9-1.5,1.6-0.7,3
	c5.7,10.6,13.9,18.8,24.5,24.6c1.3,0.7,2.1,0.5,3-0.7c1.9-2.4,3.8-4.8,5.8-7.1c1.9-2.3,3.9-2.9,6.6-1.9c5.9,2.4,11.7,4.9,17.5,7.4
	c2.8,1.2,4,3.7,3.3,6.6c-1.2,5.5-2.4,11-3.7,16.4c-0.7,2.8-2.4,4-5.4,4.1C134.2,143.9,133.1,143.8,132.1,143.8z"/>
</svg>
